<?xml version="1.0" standalone="no"?><!DOCTYPE svg PUBLIC "-//W3C//DTD SVG 1.1//EN" "http://www.w3.org/Graphics/SVG/1.1/DTD/svg11.dtd"><svg t="1581598581025" class="icon" viewBox="0 0 1024 1024" version="1.1" xmlns="http://www.w3.org/2000/svg" p-id="4246" xmlns:xlink="http://www.w3.org/1999/xlink" width="150" height="150"><defs><style type="text/css"></style></defs><path d="M646.203 277.891l-157.578 421.834c-11.724 31.021-28.69 46.53-50.827 46.53-22.5 0-39.613-15.51-51.337-46.458l-57.526-154.082-58.327 154.156c-11.724 30.947-28.69 46.385-50.899 46.385-22.5 0-39.613-15.51-51.409-46.53l-157.505-421.834 42.962-0.073 148.767 402.464c5.389 14.272 10.704 21.408 16.093 21.408 6.626 0 12.452-6.917 17.476-20.826l71.507-193.986-78.352-209.060 42.526 0.073 148.986 402.464c5.461 14.199 10.85 21.335 16.238 21.335 6.7 0 12.597-6.917 17.695-20.826l148.912-402.9 42.598-0.073z" p-id="4247"></path><path d="M712.905 406.050c0 10.85-5.534 16.311-16.603 16.311-10.559 0-15.802-5.461-15.802-16.311 0-10.559 5.243-15.729 15.802-15.729 11.069 0 16.603 5.17 16.603 15.729zM707.807 736.788h-22.428v-258.139h22.428v258.139z" p-id="4248"></path><path d="M956.043 736.57l-26.652-0.073-108.134-119.13-61.094 65.973v53.084h-22.5v-381.93h22.5v300.956l167.189-181.316 26.578-0.073-119.639 129.542 121.751 132.965z" p-id="4249"></path><path d="M1013.204 406.050c0 10.85-5.534 16.311-16.603 16.311-10.559 0-15.802-5.461-15.802-16.311 0-10.559 5.243-15.729 15.802-15.729 11.069 0 16.603 5.17 16.603 15.729zM1008.108 736.788h-22.428v-258.139h22.428v258.139z" p-id="4250"></path></svg>