<?xml version="1.0" standalone="no"?><!DOCTYPE svg PUBLIC "-//W3C//DTD SVG 1.1//EN" "http://www.w3.org/Graphics/SVG/1.1/DTD/svg11.dtd"><svg t="1581598641388" class="icon" viewBox="0 0 2331 1024" version="1.1" xmlns="http://www.w3.org/2000/svg" p-id="6052" width="455.2734375" height="200" xmlns:xlink="http://www.w3.org/1999/xlink"><defs><style type="text/css"></style></defs><path d="M1381.902913 946.72888c-18.251268-34.907405 15.431966-88.807999 60.095638-146.789161 31.383278-42.326619 45.553978-90.069265 18.177076-150.943921-16.990001-37.800898-61.245617-82.27909-51.081293-128.352413 10.3869-47.000725 84.393566-32.978409 112.994639-14.838429 62.395595 39.544414 78.866251-11.128822 104.054484-61.282713 30.789741-61.542385 90.959571-113.068831 155.247066-136.736125 48.224895-17.843211 94.149833 20.21736 71.558325 74.192146-18.102884 43.365309-14.652949 72.93088 32.273584 87.806405 24.780177 7.864367 52.157079 25.744675 56.497319 53.789306 4.377337 28.638168-45.071729 76.863063-12.019128 99.491668 25.967251 17.769019 70.482539 1.22417 99.491668 2.374148 68.29387 2.745109 81.203304 70.037386 54.419939 122.750906-12.019128 23.593102-22.628605 56.052166-9.904651 81.611361 10.757861 21.478626 38.35734 24.965657 51.415157 44.218519 17.843211 26.412404 1.780612 54.271555-19.141574 72.819591z" fill="#B0B8DE" p-id="6053"></path><path d="M1921.576583 600.956383c0.890306-0.222576 1.780612-0.370961 2.670917-0.519345a52.157079 52.157079 0 0 1 21.701203 0c8.903058 2.485437 16.136792 8.940154 25.188234 10.943342 11.536879 2.559629 31.754239-2.225764 29.083321-17.731923a21.627011 21.627011 0 0 0-16.804521-16.730329 55.64411 55.64411 0 0 0-31.494566 0.816113 87.435444 87.435444 0 0 0-28.489784 19.623823c-1.780612 1.743515-3.338647 3.709607-5.19345 5.341835a7.08535 7.08535 0 0 1 3.338646-1.743516zM1966.091871 560.373279c6.528909 0 12.946529-1.8919 19.512534-1.22417a121.341255 121.341255 0 0 0 15.506159 1.966092 18.13998 18.13998 0 0 0 16.581944-8.457905 11.944936 11.944936 0 0 0-0.445153-12.315896 15.580351 15.580351 0 0 0-7.641791-5.119258 37.096073 37.096073 0 0 0-27.302709 2.07738c-8.346616 3.709607-14.838429 10.01594-22.443125 14.615853-1.669323 1.001594-6.269236 2.337053-7.419214 4.080568-2.633821 4.377337 11.759455 4.377337 13.651355 4.377336zM1985.418925 520.198232c3.30155-1.817708 6.677293-3.375743 10.053036-5.045066a74.488915 74.488915 0 0 0 19.772207-12.723953 38.950877 38.950877 0 0 0 10.461092-21.960875c1.112882-8.383713-2.337053-18.548037-12.019128-19.067382a15.654543 15.654543 0 0 0-7.790175 2.225765 43.476598 43.476598 0 0 0-15.023909 14.467468A168.787132 168.787132 0 0 0 1977.220693 504.506593l-7.159542 16.619041c-1.966092 4.562817-3.96928 9.088538-5.86118 13.651355 7.196638-4.637009 13.614259-10.3869 21.218954-14.578757zM1950.919577 526.504565a1.520939 1.520939 0 0 0-0.259673-0.408057 41.84437 41.84437 0 0 0-13.243298-11.722359c-10.090132-6.23214-22.257644-11.128822-27.896247-22.257644-6.009564-11.796551-2.448341-25.967251 11.128822-29.676859 14.281988-4.080568 27.747863 6.788581 35.055789 18.548037s8.532097 29.046225 8.086944 42.252427c-0.222576 7.011158-0.964498 17.323866-5.749891 22.776989a38.208955 38.208955 0 0 0-7.122446-19.512534zM1958.338791 474.829735a76.566295 76.566295 0 0 1-4.822489-19.549631c-0.741921-7.196638-0.593537-16.0626 4.711201-21.62701 4.674105-4.859586 14.319084-5.749891 19.067382-0.66773 5.453123 5.86118 6.04666 15.20939 5.675699 22.776989a82.27909 82.27909 0 0 1-10.683669 38.654108c-0.333865 0.482249-1.706419 2.07738-1.372555 2.708014a81.611361 81.611361 0 0 0-5.304738-7.419215 60.095638 60.095638 0 0 1-4.599913-8.457905c-0.964498-2.26286-1.854804-4.377337-2.670918-6.41762zM1919.499203 591.422692c1.03869-2.151572-5.824083-11.128822-7.048254-12.872337-5.749891-8.606289-13.836835-16.025504-15.617447-26.709173-1.149978-6.936966-0.259673-15.320678 6.974062-18.548036 8.754673-3.932184 18.548037-1.966092 22.257644 7.678887a38.617012 38.617012 0 0 1 0.370961 21.997971c-1.03869 4.933778-2.040284 9.867555-3.227359 14.83843a64.213302 64.213302 0 0 1-3.709607 13.614258z" fill="#F2F4FD" p-id="6054"></path><path d="M1817.707579 459.620345a40.80568 40.80568 0 0 0-7.122446-20.922185c-4.674105-6.083756-14.133604-11.128822-20.88509-4.970874-5.453123 5.00797-5.119258 14.838429-3.449934 21.293146a55.64411 55.64411 0 0 0 11.128822 20.662513c4.562817 5.712795 9.385306 13.577163 15.802927 17.323866a68.9616 68.9616 0 0 0 4.748297-24.520505 60.985944 60.985944 0 0 0-0.222576-8.865961zM1845.863498 491.411679a50.339371 50.339371 0 0 0 10.757861-20.922185 28.860745 28.860745 0 0 0 0-15.877119 16.43356 16.43356 0 0 0-10.349804-11.128822c-6.009564-1.669323-11.128822 2.448341-14.244892 7.419215-10.312708 17.694827-5.453123 39.692798 0.370961 58.018258-0.890306-2.819302 3.709607-6.974062 5.37893-8.828865 2.745109-3.004782 5.527315-5.749891 8.086944-8.680482zM1887.4111 519.567599a34.239675 34.239675 0 0 0 5.601507-22.814085 8.643385 8.643385 0 0 0-9.830459-8.346616c-10.832053 0.85321-17.880307 9.236922-22.480221 18.548036-5.453123 10.832053-10.238516 24.223736-9.756267 36.46544a58.09245 58.09245 0 0 0 0.630633 8.12404 35.649326 35.649326 0 0 1 14.022316-13.428779 57.202145 57.202145 0 0 0 21.812491-18.548036zM1800.346616 516.377337c-5.082162 0.222576-10.127228 1.187074-15.246486 1.483843a29.38009 29.38009 0 0 1-14.838429-2.411245 14.838429 14.838429 0 0 1-8.383712-11.944936 13.911027 13.911027 0 0 1 8.495-12.538472 21.515722 21.515722 0 0 1 15.728735 0 48.484567 48.484567 0 0 1 13.688451 8.30952 104.833502 104.833502 0 0 1 18.214172 17.583539c-5.824083-0.296769-11.907839-0.741921-17.657731-0.482249zM1824.867121 556.441095c-9.904651-0.445153-19.623823 3.709607-29.417186 2.596726a16.43356 16.43356 0 0 1-12.612665-7.159542 13.465875 13.465875 0 0 1 4.674105-17.620635 31.012317 31.012317 0 0 1 34.870309 1.075786c10.720765 7.827271 18.13998 18.844805 25.225329 29.862339-1.780612-2.782205-8.12404-5.045066-11.128821-6.269237a34.165483 34.165483 0 0 0-11.611071-2.485437z" fill="#F2F4FD" p-id="6055"></path><path d="M2025.964933 649.960296c9.34821-4.822489 17.769019-12.019128 19.327054-23.073758 1.22417-8.532097-2.967686-17.138386-12.501377-16.730329-21.144762 0.964498-25.299522 27.30271-27.562382 43.624982-0.259673 2.114476-0.890306 4.377337-0.964498 6.417621a68.516447 68.516447 0 0 0 10.01594-4.488625c3.746703-1.928996 7.790175-3.709607 11.685263-5.749891zM1997.029996 688.948268c3.932184 5.675699 5.082162 12.835241 9.051441 18.548037a22.888277 22.888277 0 0 0 26.597885 8.198232 19.846399 19.846399 0 0 0 11.462686-14.35618c2.559629-12.946529-7.419215-20.885089-18.548036-24.112448A54.308651 54.308651 0 0 0 2003.187944 675.148529a91.998261 91.998261 0 0 0-15.357774 4.117664s7.604695 7.419215 9.199826 9.496595zM1996.176786 645.991016a29.342994 29.342994 0 0 0 3.264454-10.053036 17.398058 17.398058 0 0 0-1.632227-10.349804 13.911027 13.911027 0 0 0-13.391682-6.788582 16.396464 16.396464 0 0 0-12.872338 10.164324c-2.856398 6.640197-1.187074 14.504565 0.296769 21.25605 1.595131 7.419215 3.190262 15.543255 0 22.48022 3.709607-6.120852 10.053036-10.275612 15.320678-15.246486a45.442689 45.442689 0 0 0 9.014346-11.462686zM1956.335604 653.113462a27.080133 27.080133 0 0 0-0.890306-17.583539 14.838429 14.838429 0 0 0-19.141574-7.901463 13.169106 13.169106 0 0 0-9.014346 9.978843 21.589915 21.589915 0 0 0 5.045066 13.614259 93.5192 93.5192 0 0 1 6.825678 11.128822 100.901319 100.901319 0 0 1 4.377336 12.427184c-0.816114-2.374149 7.011158-8.97725 8.346617-11.128821a40.063759 40.063759 0 0 0 4.451529-10.535285zM1979.631937 703.156064a28.897841 28.897841 0 0 1 14.83843 18.548037 20.625417 20.625417 0 0 1-8.309521 21.44153 11.833647 11.833647 0 0 1-5.935371 2.003188 11.685263 11.685263 0 0 1-8.606289-3.709607 24.038255 24.038255 0 0 1-4.859586-8.309521c-2.26286-6.04666-3.30155-12.501377-5.341834-18.548036a31.717142 31.717142 0 0 0-10.461093-15.728735 45.62817 45.62817 0 0 1 28.675264 4.303144z" fill="#F2F4FD" p-id="6056"></path><path d="M1446.487176 807.507318a16.025504 16.025504 0 0 0-15.172294 0.296768 16.915809 16.915809 0 0 0-5.935372 17.28677c1.8919 8.97725 11.944936 12.464281 20.106072 13.317491a68.442255 68.442255 0 0 0 25.967251-2.708014c-2.188668 0.630633-6.788581-10.461093-7.715983-12.09332a37.541226 37.541226 0 0 0-17.249674-16.099695zM1484.028402 808.694392a17.769019 17.769019 0 0 1 3.30155-8.865961 20.143168 20.143168 0 0 1 15.506159-6.936966c9.867555 0.222576 13.057818 7.419215 12.130416 16.322272s-3.709607 16.878713-5.378931 25.373714c-0.927402 5.00797-4.970874 17.917403-1.780612 22.554412-3.709607-5.341835-7.419215-10.238516-11.128821-15.469062-5.712795-7.901464-13.762643-21.515722-12.649761-32.978409zM1464.367483 878.768874a36.131575 36.131575 0 0 1-24.705985 4.637009c-8.420809-1.483843-17.47225-6.603101-17.769019-16.210984a13.948123 13.948123 0 0 1 8.198232-12.835241 46.444283 46.444283 0 0 1 30.789741-3.709607c10.794957 1.966092 20.21736 7.419215 30.752645 10.312708 0.333865 0 1.446747 0.593537 1.780611 0.482249-3.96928 1.446747-8.346616 1.632227-12.130416 3.412839-6.751485 3.190262-10.609477 10.090132-16.915809 13.911027zM1490.631503 912.192436a45.257209 45.257209 0 0 1-19.252862 6.899869c-5.86118 0.779018-14.393276 1.558035-19.215766-2.559629a10.238516 10.238516 0 0 1-2.745109-10.053035c3.709607-19.54963 31.420374-16.173888 45.628169-14.83843l5.193451 0.519345c3.227358 0.370961 6.454717 0.556441 9.644979 1.112883-1.595131-0.259673-4.15476 3.30155-5.082162 4.377336a81.314592 81.314592 0 0 1-11.128822 12.612665c-1.112882 0.593537-2.07738 1.298363-3.041878 1.928996z" fill="#F2F4FD" p-id="6057"></path><path d="M1696.366324 366.694682h36.131575v243.461527h-36.131575z" fill="#C5C8E3" p-id="6058"></path><path d="M1633.414288 156.471236m20.551224 0l118.336473 0q20.551224 0 20.551225 20.551225l0 169.120996q0 20.551224-20.551225 20.551225l-118.336473 0q-20.551224 0-20.551224-20.551225l0-169.120996q0-20.551224 20.551224-20.551225Z" fill="#F2F4FD" p-id="6059"></path><path d="M1687.018113 288.607448h29.009129a7.419215 7.419215 0 0 0 5.527315 6.343429 14.838429 14.838429 0 0 0 11.128822-1.261267c4.340241-2.411245 3.078974-4.822489 2.670917-8.791769-0.482249-4.674105 7.419215-7.419215 10.943342-7.419215a45.739458 45.739458 0 0 0 12.315896-0.779017 12.575569 12.575569 0 0 0 8.420809-10.20142 10.20142 10.20142 0 0 0-4.970874-10.20142c-7.93856-4.637009-15.098102-1.261266-20.922185 12.835241l-3.524127 0.259672c-4.933778-41.028257-69.14708-45.962034-74.785683 2.337053-3.709607 3.153166-7.08535 2.003188-10.090132-3.96928-0.370961 11.128822 2.782205 17.435154 12.427184 15.469063l2.819302 0.445152c-4.414433 13.094914 17.398058 14.801333 19.030285 4.933778z" fill="#C5C8E3" p-id="6060"></path><path d="M1666.207216 330.785683m4.266049 0l80.127517 0q4.266048 0 4.266049 4.266049l0 0q0 4.266048-4.266049 4.266048l-80.127517 0q-4.266048 0-4.266049-4.266048l0 0q0-4.266048 4.266049-4.266049Z" fill="#C5C8E3" p-id="6061"></path><path d="M1754.829735 950.438487c260.451529-6.306332 284.712361-358.978699 10.572381-393.218374-263.567599 22.814085-316.948848 385.502391-10.572381 393.218374z" fill="#DFE1EB" p-id="6062"></path><path d="M1697.590494 986.755543h-10.794957a2.151572 2.151572 0 0 1-2.114476-2.114476v-24.038256a13.762643 13.762643 0 0 1 1.03869-4.637009 10.312708 10.312708 0 1 0-5.935372-0.445153c0.408057 1.928996 0.741921 4.785393 0.816114 5.304739 0.667729 7.678887 0 15.431966 0 23.110853v16.878713c0 2.893494-1.483843 10.312708 2.299956 11.462687a20.365744 20.365744 0 0 0 6.009564 0h8.049848a1.966092 1.966092 0 0 0 1.966092-1.966092v-2.670917a1.817708 1.817708 0 0 0-1.817708-1.817708h-3.709607a2.040284 2.040284 0 0 1-2.040284-2.040284V997.884365a2.225764 2.225764 0 0 1 2.225764-2.225765h3.709608a2.374149 2.374149 0 0 0 2.374148-2.374148v-4.599914a1.8919 1.8919 0 0 0-2.07738-1.928995z m-20.551224-40.805681a6.491813 6.491813 0 1 1 6.491812 6.491813 6.491813 6.491813 0 0 1-6.491812-6.491813z" fill="#FFBA1B" p-id="6063"></path><path d="M1854.803652 1005.303579a24.446312 24.446312 0 0 0 17.65773 4.117664 2.188668 2.188668 0 0 1 2.485437 3.227359c-9.756267 15.098102-26.63498 10.164324-41.695986-4.191857z" fill="#292E76" p-id="6064"></path><path d="M1787.140414 1012.722794l-4.748297 4.933778a2.114476 2.114476 0 0 0 1.22417 3.524126 206.365454 206.365454 0 0 0 45.368498 1.001594 11.128822 11.128822 0 0 0 9.904651-9.125634c0.18548-1.261266 0.333865-2.596725 0.408057-4.006375l-40.80568-3.709608z" fill="#1F2359" p-id="6065"></path><path d="M1800.791769 1010.534125a22.257644 22.257644 0 0 0-7.233734 8.865962c-0.445153 1.632227-0.445153 3.264454 1.22417 3.487031 15.135198 2.003188 19.067382 1.001594 34.20258-0.779018a11.128822 11.128822 0 0 0 9.904651-9.125634c0.18548-1.261266 0.333865-2.596725 0.408057-4.006376l-37.096073-3.338646zM1721.591653 973.17838c-10.646573-7.159542-18.548037-19.36415-20.58832-37.467034a14.838429 14.838429 0 0 1-13.13201-14.393276 2.448341 2.448341 0 0 1 1.743515-2.670917c3.338647-0.890306 5.86118 0.85321 6.417621-3.709608 0.704825-5.416027-17.360962-2.522533-17.360962-10.609477s24.891465-7.011158 39.692798 1.335459a6.936966 6.936966 0 0 1 2.856398 3.153166 26.597884 26.597884 0 0 1 1.335458 20.996378z" fill="#292E76" p-id="6066"></path><path d="M1740.9929 996.215041a14.022316 14.022316 0 0 0 2.374148 8.420809 10.609477 10.609477 0 0 0-4.562817 5.935372 3.709607 3.709607 0 0 0 2.522533 4.711201 16.915809 16.915809 0 0 0 9.088538-0.445153l1.372555-18.548037z" fill="#1F2359" p-id="6067"></path><path d="M1720.812636 941.461238l81.388784 66.772931c0.259673 6.343428-22.665701 3.338647-53.93769-5.972468-20.588321-13.243298-35.055789-30.344588-27.451094-60.800463z" fill="#3D42A2" p-id="6068"></path><path d="M1735.428489 973.17838c1.075786 8.680481 9.422403 25.633386 12.835241 31.309086a25.151138 25.151138 0 0 0-3.709607 7.419214 4.451529 4.451529 0 0 0 4.080568 5.564411l12.130416 0.741922c6.640197 0.408057 10.498189-6.120852 8.940153-12.612665a28.007535 28.007535 0 0 0-7.419214-14.133604z" fill="#292E76" p-id="6069"></path><path d="M1724.967396 927.401826c82.390378-60.614983 140.074772-24.5576 132.06202 73.227648a7.901464 7.901464 0 0 1-6.714389 7.122446c-64.99232 9.311114-123.08477-14.838429-129.836256-69.443849A11.648167 11.648167 0 0 1 1724.967396 927.401826z" fill="#6776C3" p-id="6070"></path><path d="M526.541661 156.471236c84.467758-41.621794 166.932329 336.498478 262.157948 790.851181C620.097957 540.193016 477.018403 178.061151 526.541661 156.471236z" fill="#C5C8E3" p-id="6071"></path><path d="M681.417766 18.102884c53.269961-0.927402 79.274308 398.26344 107.578611 929.145341-161.553398-456.689755-184.590059-915.08593-107.578611-929.145341z" fill="#C5C8E3" p-id="6072"></path><path d="M923.914795 38.431532c37.467034 16.767425 37.68961 85.320968 36.354152 118.707433-2.299957 58.723084-20.21736 115.257499-36.057383 171.420954-31.754239 112.88335-73.524417 222.687726-116.296189 331.750181-37.096073 94.483698-75.713085 188.299667-113.439792 282.486596 12.538473-216.455586 37.800898-435.470801 88.622519-646.510361 11.907839-49.411969 22.48022-101.383568 41.473409-149.497174 11.536879-29.231706 54.902188-128.241124 99.343284-108.357629z" fill="#C5C8E3" p-id="6073"></path><path d="M1013.242139 336.832343a14.244892 14.244892 0 0 0-1.001594-1.075786c-10.683669-10.683669-27.005941-1.149978-38.023475 5.045066-44.144327 24.817273-77.08564 74.006666-105.909289 114.070425-100.159397 139.481235-182.141719 292.094479-269.31749 439.811041-11.128822 18.548037-19.920591 33.757426-31.049413 52.305463 116.630054-137.25547 237.414867-266.238516 346.366034-409.800318 26.931749-35.538038 53.381249-71.929286 75.156644-110.917259 10.127228-18.13998 22.628605-35.908999 28.044631-56.237646 2.633821-9.385306 2.633821-25.039849-4.266048-33.200986z" fill="#C5C8E3" p-id="6074"></path><path d="M216.23301 946.988552c-7.641791 0-16.544849-34.870309-16.990002-41.287929a50.895812 50.895812 0 0 1 10.127228-33.942907c15.172294-21.404434 40.80568-43.291117 39.804087-71.780901-0.519345-14.838429-9.496595-26.820461-14.504565-40.323431-9.34821-25.002753-20.625417-70.927692 2.782205-92.072454 19.252862-17.360962 45.108825-8.940154 67.811622-6.41762 24.18664 2.708013 54.123171 2.819302 76.529199-7.827272 37.096073-17.583539 7.08535-46.370091-4.859586-70.964787-20.588321-42.289523 23.815679-61.02304 57.684394-66.772932 51.526445-8.903058 16.656137-73.746993 14.54166-104.685118-1.483843-21.738299-0.408057-57.127952 27.005941-60.355311 29.046225-3.449935 55.310245 21.070569 76.084046 37.726706 53.455441 42.845964 104.091581 88.585422 160.774381 127.387915a713.876829 713.876829 0 0 0 83.31778 49.894218c20.180264 10.127228 40.249239 23.704391 63.063324 27.228518 40.249239 6.23214 72.856687-47.445877 112.660774-26.226924 25.967251 13.911027 15.20939 46.370091 12.983625 69.480945-2.967686 31.234893 5.341835 67.106796 27.525287 90.21765 12.909433 13.391682 31.494566 24.668889 27.822054 46.036226-4.970874 29.120417-37.912187 45.665266-63.063324 53.269961-42.734676 13.020722-56.979568 45.145921-48.818432 87.991886a27.896247 27.896247 0 0 1-27.228518 33.386465z" fill="#B0B8DE" p-id="6075"></path><path d="M423.377482 555.92175c-10.423997-8.272424-18.548037-20.551224-18.362557-33.831618 0-9.533691 8.606289-16.025504 17.694827-16.804521 13.169106-1.112882 16.878713 14.838429 14.838429 24.631792a116.66715 116.66715 0 0 1-5.082162 15.914216 77.901753 77.901753 0 0 0-3.153166 14.838429c-1.780612-0.519345-4.340241-3.524127-5.935371-4.748298zM449.604405 570.09245a41.287929 41.287929 0 0 1-4.599913-25.039849c3.412839-17.620635 32.051007-16.841617 35.315462 0.593537 2.670917 14.319084-15.469062 20.885089-21.404435 31.420374a40.80568 40.80568 0 0 0-2.522532 7.604695 110.694682 110.694682 0 0 0-6.788582-14.578757zM479.763513 592.312998a25.967251 25.967251 0 0 1 1.891899-20.58832 24.297928 24.297928 0 0 1 16.693233-12.019128 17.175482 17.175482 0 0 1 6.157948 0 13.725547 13.725547 0 0 1 10.757861 12.315896 19.623823 19.623823 0 0 1-6.528908 14.319084c-3.709607 3.709607-8.495001 6.714389-12.649761 10.164324a22.702797 22.702797 0 0 0-5.341835 5.638603c-0.704825 1.149978-3.709607 5.786987-3.30155 6.89987-0.593537-1.520939-0.927402-3.153166-1.483843-4.637009a25.559194 25.559194 0 0 0-2.225765-3.709607 39.507318 39.507318 0 0 1-3.969279-8.383713zM425.195189 592.350094c-3.709607 1.409651-7.159542 3.375743-10.757861 4.859586-12.872337 5.19345-32.199391 12.612665-33.868715-7.827272-1.446747-17.212578 16.396464-21.738299 29.936531-18.139979a49.523257 49.523257 0 0 1 21.552819 11.128822 86.396754 86.396754 0 0 0 8.12404 7.048253 40.397624 40.397624 0 0 0-11.128822 1.520939 28.934937 28.934937 0 0 0-3.857992 1.409651zM450.717287 615.794812a35.092885 35.092885 0 0 0-27.67367 3.153167 23.852775 23.852775 0 0 0-11.128822 24.483408c1.335459 6.009564 12.983626 5.119258 17.435154 2.93059 5.638603-2.782205 8.643385-10.423997 13.651355-14.430373a42.845964 42.845964 0 0 1 20.365744-9.088538 22.257644 22.257644 0 0 0 6.083756-1.335458 181.770758 181.770758 0 0 0-18.733517-5.712796zM483.47312 635.529923c-11.128822 1.22417-20.588321 7.419215-23.370526 18.548037a10.349804 10.349804 0 0 0-0.333865 4.377336 5.00797 5.00797 0 0 0 2.374149 3.709608 7.753079 7.753079 0 0 0 3.338646 0.630633c2.559629 0 5.082162 0 7.641791 0.222576a27.67367 27.67367 0 0 0 13.651355-2.003188c4.006376-2.151572 5.935372-6.23214 8.865962-9.53369s13.020722-6.454717 6.04666-10.943342a27.599478 27.599478 0 0 0-18.214172-5.00797z" fill="#F2F4FD" p-id="6076"></path><path d="M902.547457 654.040864c-4.414433-10.312708-6.566005-20.847993 0-30.678453a15.172294 15.172294 0 0 1 17.583539-6.157948c7.419215 3.190262 9.570787 12.352992 10.535284 19.549631a49.894218 49.894218 0 0 1-3.375742 24.74308c-1.817708 4.637009-3.375743 9.34821-5.193451 13.948124-0.927402 2.374149-5.267642 11.796551-5.267642 11.796551s-3.709607-10.832053-4.896682-13.651355c-2.893494-6.566005-6.566005-12.872337-9.385306-19.54963zM921.540646 702.636719c4.377337-9.644979 8.680481-19.289958 13.688451-28.638168 4.266048-8.012752 9.682075-17.694827 18.548037-21.404434a12.983626 12.983626 0 0 1 17.991595 8.940153c6.603101 27.599478-21.293146 44.737864-44.515287 50.190987a108.72859 108.72859 0 0 0-11.128822 3.264455 39.58151 39.58151 0 0 0 2.299956-5.453123c1.001594-2.299957 2.07738-4.711201 3.11607-6.89987zM931.593682 728.529778a39.58151 39.58151 0 0 1 16.470657-1.928996 20.365744 20.365744 0 0 1 14.133603 7.975656 13.873931 13.873931 0 0 1 0.296769 15.654543 15.357774 15.357774 0 0 1-11.425591 5.564411 38.35734 38.35734 0 0 1-12.909433-2.003188 214.007245 214.007245 0 0 0-27.859151-7.419215 22.999565 22.999565 0 0 0-12.204608 1.780612c10.757861-7.048254 20.847993-15.802927 33.497754-19.623823zM894.794378 773.935372a53.269961 53.269961 0 0 1 28.563976-4.303145c8.903058 1.372555 19.289958 5.453123 20.736705 15.506159a14.838429 14.838429 0 0 1-6.04666 13.465874c-6.936966 5.156354-14.615853 2.708013-21.478627-1.03869-14.319084-7.827271-29.083321-10.423997-45.14592-11.759455a49.449065 49.449065 0 0 1 9.719171-5.304738c4.637009-2.299957 9.16273-4.637009 13.651355-6.566005zM871.386756 737.098971a21.218954 21.218954 0 0 0-8.272425-15.506158c-12.723953-8.235328-22.925373 8.532097-19.809303 19.73511a56.163455 56.163455 0 0 0 10.757861 19.067382c3.709607 4.711201 11.128822 12.09332 9.014346 18.956093 1.817708-5.675699 2.856398-11.611071 4.637009-17.323866a60.429503 60.429503 0 0 0 3.672512-24.928561zM885.149399 700.819012a53.084481 53.084481 0 0 1-24.149544-17.249674c-6.825677-9.34821-11.462687-23.964063 1.558035-30.307492s28.52688 8.049848 33.386466 18.918997c5.749891 12.761049 6.974062 30.2333 7.011158 44.107231-0.037096-8.791769-17.28677-15.172294-17.806115-15.469062z" fill="#F2F4FD" p-id="6077"></path><path d="M876.876974 850.167802c-0.927402-2.559629-2.07738-5.119258-3.004782-7.678887a22.257644 22.257644 0 0 1 0.927402-18.028692c3.709607-7.419215 15.840023-8.049848 20.922185-2.040284 6.454717 7.604695 4.488625 18.214172 0 26.26402s-11.128822 12.427184-18.177075 17.435154a1.335459 1.335459 0 0 0-0.370961 0.259673s1.187074-6.120852 1.261266-7.419215a22.962469 22.962469 0 0 0-1.558035-8.791769zM939.124185 833.437473c-4.711201 9.459499-14.319084 16.767425-22.257644 23.259238a15.914215 15.914215 0 0 0-5.19345 6.714389 60.466599 60.466599 0 0 0 3.96928-18.844805 78.569483 78.569483 0 0 0-3.895088-18.214172 14.838429 14.838429 0 0 1 4.637009-15.728735 15.914215 15.914215 0 0 1 18.548037-2.114476 15.357774 15.357774 0 0 1 7.011157 12.612665 25.967251 25.967251 0 0 1-2.819301 12.315896zM953.369077 844.306622a77.901753 77.901753 0 0 0 3.709607-19.17867 34.833213 34.833213 0 0 1 6.677293-18.177075 18.548037 18.548037 0 0 1 11.462687-6.454717 16.544849 16.544849 0 0 1 12.612665 3.338647 17.10129 17.10129 0 0 1 6.009564 11.685263 20.588321 20.588321 0 0 1-3.412839 12.798145 32.013911 32.013911 0 0 1-3.709607 4.637009 59.613389 59.613389 0 0 1-32.792929 17.47225c-1.22417 0.222576-6.009564 0.85321-6.009564 0.85321a82.204898 82.204898 0 0 0 5.453123-6.974062zM933.856543 873.61252c4.970874 4.785393 9.199826 13.169106 11.982031 16.099696 8.235328 8.680481 21.997971 13.614259 33.386466 8.495a12.09332 12.09332 0 0 0 7.419214-8.495c1.149978-5.786987-2.856398-11.314302-6.788581-15.098102-9.978844-9.644979-24.520504-10.535285-37.652514-9.607883a37.68961 37.68961 0 0 0-19.735111 5.453123c3.783799-2.782205 8.049848-0.037096 11.388495 3.153166zM903.215186 902.844225a106.985075 106.985075 0 0 1 4.15476 12.019128c2.188668 7.419215 4.970874 15.617447 13.502971 17.657731 5.19345 1.22417 11.42559 0.445153 13.836835-4.859586a23.296334 23.296334 0 0 0-2.003188-21.701202 34.647732 34.647732 0 0 0-15.431966-12.983626 183.291697 183.291697 0 0 0-25.114042-6.380525c1.03869 0 2.708013 2.782205 3.338647 3.487031a46.221707 46.221707 0 0 1 7.715983 12.761049zM857.253152 903.808723c1.409651 2.299957 2.708013 4.674105 4.043472 7.011158 3.041878 5.453123 6.195044 11.499783 12.46428 13.799739 11.128822 4.006376 17.064194-9.236922 13.057818-17.991595s-15.098102-11.42559-23.741487-13.13201a139.073178 139.073178 0 0 0-14.1707-1.187074s6.157948 8.012752 8.346617 11.499782z" fill="#F2F4FD" p-id="6078"></path><path d="M802.091291 682.196783a72.559919 72.559919 0 0 0 8.346617-18.548036 29.676858 29.676858 0 0 0 0.779017-17.175482 13.688451 13.688451 0 0 0-12.798145-9.941748 13.280394 13.280394 0 0 0-10.275612 7.048254 26.672077 26.672077 0 0 0-2.893494 12.575569 80.350094 80.350094 0 0 0 4.933778 27.043037c0.816114 2.485437 1.8919 9.644979 5.119258 8.643385 2.559629-0.779018 5.416027-7.493407 6.788581-9.644979zM809.362121 731.460368a99.75134 99.75134 0 0 0 21.552819-13.948123 34.128387 34.128387 0 0 0 11.759455-22.257644 16.136792 16.136792 0 0 0-6.862773-15.246486 14.838429 14.838429 0 0 0-12.798146 0 31.420374 31.420374 0 0 0-10.423996 8.049848 76.380814 76.380814 0 0 0-17.212578 31.531662c-0.816114 3.11607-4.525721 14.838429-2.262861 17.509346s13.465875-4.15476 16.24808-5.638603z" fill="#F2F4FD" p-id="6079"></path><path d="M530.13998 946.988552c-8.420809 0-23.964063-16.173888-29.268802-22.257643a53.269961 53.269961 0 0 1-13.354586-26.412404 61.87625 61.87625 0 0 1 9.570787-43.216926c7.93856-11.128822 21.627011-11.833647 30.678452-21.404434 21.144762-22.48022-23.33343-59.910158-37.50413-74.192146-12.352992-12.352992-17.731923-42.252427-18.288364-58.982756a91.25634 91.25634 0 0 1 17.398058-56.126358c12.056224-17.027098 31.012317-27.67367 41.584698-45.702362 11.128822-18.881901 14.1707-42.400811 4.228953-62.506883-3.004782-5.972468-6.936966-11.42559-9.904652-17.435155-9.051442-18.288364-5.341835-56.979568 11.685263-70.816403 18.733517-15.246486 42.623388 7.08535 42.363716 26.63498-0.519345 40.80568 34.684828 54.457035 66.290682 68.9616 15.654543 7.196638 29.120417 18.956093 32.755833 36.576728a59.353717 59.353717 0 0 1-7.048254 39.470222 106.614114 106.614114 0 0 0-7.827272 14.838429c-4.785393 13.836835-1.112882 33.942907 4.970874 47.037821a49.374873 49.374873 0 0 0 16.507753 20.254455 33.905811 33.905811 0 0 1 8.049847 6.232141c6.788581 8.495001 1.520939 41.992755 1.520939 52.936096v186.185191z" fill="#6776C3" p-id="6080"></path><path d="M423.562962 654.115056c-225.321548 0-199.465585 271.283582 0 293.058977 245.427619-45.739458 185.665846-293.318649 0-293.058977z" fill="#DFE1EB" p-id="6081"></path><path d="M1508.882771 467.41052a5.564411 5.564411 0 0 0-5.564411 5.564411v78.235618c0 13.502971-1.149978 26.968845-0.66773 40.471816 0.408057 12.538473 5.749891 24.520504 5.972468 36.688016s-4.414433 25.670483-5.304738 38.246051c-3.264454 45.999131-0.222576 93.33372-0.185481 139.518331v198.09303a10.498189 10.498189 0 0 0 10.498189 10.498189h102.68193a10.832053 10.832053 0 0 0 10.832053-10.832054V574.210114c0-16.915809 0.18548-33.794523 0-50.673235s-3.227358-33.386466 0-49.78293c2.893494-14.244892-24.668889-1.372555-28.267207-0.630634a38.987973 38.987973 0 0 1-17.546443-0.779017c-24.038255-5.972468-47.52007-4.933778-72.44863-4.933778z" fill="#3D42A2" p-id="6082"></path><path d="M686.277351 466.18635V493.377771c0 14.652949-5.19345 29.342994-4.414433 43.662078 0.593537 11.128822 3.487031 21.367338 3.709608 32.570352q0.556441 19.586727 0.816113 39.21055c0.370961 34.313868-0.18548 68.627735-0.18548 102.941602V1005.303579a9.570787 9.570787 0 0 0 9.533691 9.533691h91.81278a8.717577 8.717577 0 0 0 8.680482-8.717577v-100.159397-51.081293c0-15.098102 5.675699-28.601072 6.491812-43.439501 0.630633-11.611071-3.041878-22.517316-4.970873-33.831619-3.078974-18.288364-1.558035-36.205767-1.446747-54.60542 0.18548-22.776989 0-45.591074 0-68.368062v-170.641936c0-12.946529 3.709607-27.413998-14.467469-27.710767-5.972468 0-16.952905-2.114476-21.589914 2.559629-3.96928 3.932184-0.593537 12.427184-8.606289 12.464281-7.419215 0-10.609477-6.640197-15.877119-10.423997-10.757861-7.753079-27.376902-4.340241-39.878279-4.34024a9.533691 9.533691 0 0 0-9.607883 9.644979z" fill="#3D42A2" p-id="6083"></path><path d="M1196.830604 672.292132c5.267642-81.611361-116.259093-98.415882-116.259093 0.890305a13.688451 13.688451 0 0 0-1.149978 4.488625v98.378786a7.419215 7.419215 0 0 0 7.233734 7.419214h103.869005a9.014346 9.014346 0 0 0 9.014346-9.014345V678.858137a10.757861 10.757861 0 0 0-2.708014-6.566005z m-49.745834 86.953195a2.225764 2.225764 0 0 1 0.482249 1.483843c0 1.483843-2.07738 1.8919-3.709607 1.891899h-11.128822a2.337053 2.337053 0 0 1-2.003188-0.667729c-0.482249-0.741921 0-1.669323 0.408057-2.411245a25.967251 25.967251 0 0 0 2.93059-15.988407 37.096073 37.096073 0 0 0-5.935372-14.541661 18.065788 18.065788 0 0 1-3.153166-13.836835 11.648167 11.648167 0 0 1 6.306332-6.936966 16.804521 16.804521 0 0 1 9.459499-1.261266 13.391682 13.391682 0 0 1 10.238516 6.04666 11.685263 11.685263 0 0 1 1.001594 7.604695 20.291552 20.291552 0 0 1-3.078974 7.122446 59.13114 59.13114 0 0 0-5.86118 9.274018 21.515722 21.515722 0 0 0-1.187074 9.459499 19.920591 19.920591 0 0 0 4.340241 11.944935z m32.570352-86.953195h-82.501666c-3.338647-71.076076 86.656427-65.734241 82.501666 0z" fill="#FFBA1B" p-id="6084"></path></svg>